<mxfile host="65bd71144e" modified="2020-12-28T01:36:21.110Z" agent="5.0 (Windows NT 10.0; Win64; x64) AppleWebKit/537.36 (KHTML, like Gecko) Code/1.52.1 Chrome/83.0.4103.122 Electron/9.3.5 Safari/537.36" version="13.10.0" etag="ZW4b37oSBbup5c2DwH-j" type="embed">
    <diagram id="OLvkZmB6lZHWCmhTik2p" name="第 1 页">
        <mxGraphModel dx="1783" dy="1150" grid="1" gridSize="10" guides="1" tooltips="1" connect="1" arrows="1" fold="1" page="1" pageScale="1" pageWidth="827" pageHeight="1169" math="0" shadow="0">
            <root>
                <mxCell id="0"/>
                <mxCell id="1" parent="0"/>
                <mxCell id="4" value="" style="edgeStyle=orthogonalEdgeStyle;rounded=0;orthogonalLoop=1;jettySize=auto;html=1;" edge="1" parent="1" source="2" target="3">
                    <mxGeometry relative="1" as="geometry"/>
                </mxCell>
                <mxCell id="2" value="开始" style="ellipse;whiteSpace=wrap;html=1;" vertex="1" parent="1">
                    <mxGeometry x="340" y="120" width="120" height="40" as="geometry"/>
                </mxCell>
                <mxCell id="6" value="N" style="edgeStyle=orthogonalEdgeStyle;rounded=0;orthogonalLoop=1;jettySize=auto;html=1;" edge="1" parent="1" source="3" target="5">
                    <mxGeometry relative="1" as="geometry"/>
                </mxCell>
                <mxCell id="24" style="edgeStyle=orthogonalEdgeStyle;rounded=0;orthogonalLoop=1;jettySize=auto;html=1;" edge="1" parent="1" source="3" target="25">
                    <mxGeometry relative="1" as="geometry">
                        <mxPoint x="400" y="920" as="targetPoint"/>
                        <Array as="points">
                            <mxPoint x="740" y="260"/>
                            <mxPoint x="740" y="820"/>
                            <mxPoint x="403" y="820"/>
                        </Array>
                    </mxGeometry>
                </mxCell>
                <mxCell id="26" value="Y" style="edgeLabel;html=1;align=center;verticalAlign=middle;resizable=0;points=[];" vertex="1" connectable="0" parent="24">
                    <mxGeometry x="-0.1011" y="-3" relative="1" as="geometry">
                        <mxPoint as="offset"/>
                    </mxGeometry>
                </mxCell>
                <mxCell id="3" value="是否满足退出条件？" style="rhombus;whiteSpace=wrap;html=1;" vertex="1" parent="1">
                    <mxGeometry x="360" y="220" width="80" height="80" as="geometry"/>
                </mxCell>
                <mxCell id="9" value="" style="edgeStyle=orthogonalEdgeStyle;rounded=0;orthogonalLoop=1;jettySize=auto;html=1;" edge="1" parent="1" source="5" target="8">
                    <mxGeometry relative="1" as="geometry"/>
                </mxCell>
                <mxCell id="5" value="计算种群的适应度" style="whiteSpace=wrap;html=1;" vertex="1" parent="1">
                    <mxGeometry x="340" y="350" width="120" height="60" as="geometry"/>
                </mxCell>
                <mxCell id="7" value="适应度=1/距离" style="text;html=1;strokeColor=none;fillColor=none;align=center;verticalAlign=middle;whiteSpace=wrap;rounded=0;" vertex="1" parent="1">
                    <mxGeometry x="470" y="370" width="90" height="20" as="geometry"/>
                </mxCell>
                <mxCell id="12" value="" style="edgeStyle=orthogonalEdgeStyle;rounded=0;orthogonalLoop=1;jettySize=auto;html=1;" edge="1" parent="1" source="8" target="11">
                    <mxGeometry relative="1" as="geometry"/>
                </mxCell>
                <mxCell id="8" value="比例选择运算&lt;br&gt;（轮盘赌算法）" style="whiteSpace=wrap;html=1;" vertex="1" parent="1">
                    <mxGeometry x="340" y="460" width="120" height="60" as="geometry"/>
                </mxCell>
                <mxCell id="10" value="&lt;h1&gt;基因编码方式&lt;/h1&gt;&lt;div&gt;城市的访问序列、&lt;/div&gt;&lt;div&gt;例如 [1,3,4,2,0]&lt;/div&gt;" style="text;html=1;strokeColor=none;fillColor=none;spacing=5;spacingTop=-20;whiteSpace=wrap;overflow=hidden;rounded=0;" vertex="1" parent="1">
                    <mxGeometry x="20" y="140" width="190" height="120" as="geometry"/>
                </mxCell>
                <mxCell id="16" value="" style="edgeStyle=orthogonalEdgeStyle;rounded=0;orthogonalLoop=1;jettySize=auto;html=1;" edge="1" parent="1" source="11" target="15">
                    <mxGeometry relative="1" as="geometry"/>
                </mxCell>
                <mxCell id="11" value="交叉运算" style="whiteSpace=wrap;html=1;" vertex="1" parent="1">
                    <mxGeometry x="340" y="560" width="120" height="60" as="geometry"/>
                </mxCell>
                <mxCell id="13" value="概率地选择一个个体&amp;nbsp; 交换其两个城市的位置:&lt;br&gt;例如 [7,1,.5,4,0]&amp;nbsp; ==1,0交换-=&amp;gt; [7,0,5,4,1]" style="text;html=1;strokeColor=none;fillColor=none;align=left;verticalAlign=middle;whiteSpace=wrap;rounded=0;" vertex="1" parent="1">
                    <mxGeometry x="480" y="580" width="250" height="20" as="geometry"/>
                </mxCell>
                <mxCell id="22" value="" style="edgeStyle=orthogonalEdgeStyle;rounded=0;orthogonalLoop=1;jettySize=auto;html=1;entryX=0;entryY=0.5;entryDx=0;entryDy=0;" edge="1" parent="1" source="15" target="3">
                    <mxGeometry relative="1" as="geometry">
                        <mxPoint x="400" y="840" as="targetPoint"/>
                        <Array as="points">
                            <mxPoint x="210" y="730"/>
                            <mxPoint x="210" y="260"/>
                        </Array>
                    </mxGeometry>
                </mxCell>
                <mxCell id="15" value="基本位变换" style="whiteSpace=wrap;html=1;" vertex="1" parent="1">
                    <mxGeometry x="340" y="700" width="120" height="60" as="geometry"/>
                </mxCell>
                <mxCell id="17" value="概率地选择一个个体&amp;nbsp; 随机的选择一个城市将其替换为同一物品的另一个城市&lt;br&gt;&lt;br&gt;例：城市1,2同属物品A&lt;br&gt;[7,1,.5,4,0]&amp;nbsp; ==2替换1-=&amp;gt; [7,0,5,4,1]" style="text;html=1;strokeColor=none;fillColor=none;align=left;verticalAlign=middle;whiteSpace=wrap;rounded=0;" vertex="1" parent="1">
                    <mxGeometry x="480" y="720" width="250" height="20" as="geometry"/>
                </mxCell>
                <mxCell id="25" value="停止" style="ellipse;whiteSpace=wrap;html=1;" vertex="1" parent="1">
                    <mxGeometry x="340" y="860" width="126" height="40" as="geometry"/>
                </mxCell>
            </root>
        </mxGraphModel>
    </diagram>
</mxfile>